<?xml version="1.0" encoding="UTF-8" standalone="no"?>
<!-- Created with Inkscape (http://www.inkscape.org/) -->

<svg
   width="960px"
   height="720px"
   viewBox="0 0 720 960"
   version="1.1"
   id="svg1"
   inkscape:version="1.2.1 (9c6d41e410, 2022-07-14)"
   sodipodi:docname="orbit1.svg"
   xmlns:inkscape="http://www.inkscape.org/namespaces/inkscape"
   xmlns:sodipodi="http://sodipodi.sourceforge.net/DTD/sodipodi-0.dtd"
   xmlns="http://www.w3.org/2000/svg"
   xmlns:svg="http://www.w3.org/2000/svg">
  <sodipodi:namedview
     id="namedview7"
     pagecolor="#ffffff"
     bordercolor="#666666"
     borderopacity="1.0"
     inkscape:showpageshadow="2"
     inkscape:pageopacity="0.0"
     inkscape:pagecheckerboard="0"
     inkscape:deskcolor="#d1d1d1"
     inkscape:document-units="px"
     showgrid="false"
     inkscape:zoom="0.97764853"
     inkscape:cx="459.26525"
     inkscape:cy="370.27622"
     inkscape:window-width="1920"
     inkscape:window-height="974"
     inkscape:window-x="-11"
     inkscape:window-y="-11"
     inkscape:window-maximized="1"
     inkscape:current-layer="layer1" />
  <defs
     id="defs2" />
  <g
     inkscape:label="Layer 1"
     inkscape:groupmode="layer"
     id="layer1">
    <text
       xml:space="preserve"
       x="390"
       y="470"
       id="text292"
       font-size="32px"><tspan
         sodipodi:role="line"
         id="tspan290"
         style="fill:#000000;stroke-width:1.33333"
         x="390"
         y="470">太陽</tspan></text>
    <circle
       id="circle228"
       cx="360"
       cy="480"
       r="15"
       style="fill:#ffff00;stroke:#000000;stroke-width:2;" />
    <text
       xml:space="preserve"
       x="770"
       y="470"
       id="text301"
       font-size="32px"><tspan
         sodipodi:role="line"
         id="tspan299"
         style="fill:#0000ff;stroke-width:1.33333"
         x="790"
         y="470">地球</tspan></text>
    <circle
       id="circle230"
       cx="720"
       cy="480"
       r="10"
       style="fill:#0000ff;stroke:#0000ff;stroke-width:2;" />
    <circle
       style="fill:none;stroke:#0000ff;stroke-width:2;"
       id="path111"
       cx="360"
       cy="480"
       r="360" />
    <text
       xml:space="preserve"
       x="610"
       y="470"
       id="text355"
       font-size="32px"><tspan
         sodipodi:role="line"
         id="tspan353"
         style="fill:#ff0000;stroke-width:1.33333"
         x="610"
         y="470">月</tspan></text>
    <circle
       id="circle234"
       cx="660"
       cy="480"
       r="10"
       style="fill:#ff0000;stroke:#ff0000;fill-width:2" />
    <path
       id="path596"
       style="fill:none;stroke:#ff0000;stroke-width:5px;stroke-linecap:butt;stroke-linejoin:miter;stroke-opacity:1"
       d="m 647.20708,370.55632 c 3.83574,31.14012 45.24876,41.11466 70.35446,34.11519 22.79494,-6.35522 33.08613,-44.57917 33.23732,-57.90505 4.77111,-33.15607 -37.40181,-103.4667 -69.40148,-126.62235 -22.20002,-16.06442 -56.75232,-39.6265 -80.82942,-14.99209 -32.33048,33.07885 -5.7895,68.76925 -5.7895,68.76925 m 65.47641,206.81417 c 0,30.97057 26.7332,54.98365 52.64229,57.81337 23.5244,2.56927 47.28109,-29.09457 52.37273,-41.4103 16.74879,-29.00976 3.7191,-109.95645 -17.38622,-143.34401 -14.64197,-23.16288 -37.8203,-57.54141 -69.47262,-43.95125 -44.02636,18.90305 -30.92646,61.69507 -30.92646,61.69507" />
  </g>
</svg>
