<?xml version="1.0" encoding="utf-8" standalone="no"?>
<!DOCTYPE svg PUBLIC "-//W3C//DTD SVG 1.1//EN"
  "http://www.w3.org/Graphics/SVG/1.1/DTD/svg11.dtd">
<svg xmlns:xlink="http://www.w3.org/1999/xlink" width="460.8pt" height="345.6pt" viewBox="0 0 460.8 345.6" xmlns="http://www.w3.org/2000/svg" version="1.1">
 <metadata>
  <rdf:RDF xmlns:dc="http://purl.org/dc/elements/1.1/" xmlns:cc="http://creativecommons.org/ns#" xmlns:rdf="http://www.w3.org/1999/02/22-rdf-syntax-ns#">
   <cc:Work>
    <dc:type rdf:resource="http://purl.org/dc/dcmitype/StillImage"/>
    <dc:date>2022-04-03T11:58:15.945137</dc:date>
    <dc:format>image/svg+xml</dc:format>
    <dc:creator>
     <cc:Agent>
      <dc:title>Matplotlib v3.5.1, https://matplotlib.org/</dc:title>
     </cc:Agent>
    </dc:creator>
   </cc:Work>
  </rdf:RDF>
 </metadata>
 <defs>
  <style type="text/css">*{stroke-linejoin: round; stroke-linecap: butt}</style>
 </defs>
 <g id="figure_1">
  <g id="patch_1">
   <path d="M 0 345.6 
L 460.8 345.6 
L 460.8 0 
L 0 0 
z
" style="fill: #ffffff"/>
  </g>
  <g id="axes_1">
   <g id="patch_2">
    <path d="M 57.6 307.584 
L 414.72 307.584 
L 414.72 41.472 
L 57.6 41.472 
z
" style="fill: #ffffff"/>
   </g>
   <g id="matplotlib.axis_1">
    <g id="xtick_1">
     <g id="line2d_1">
      <defs>
       <path id="mbaacd90a76" d="M 0 0 
L 0 3.5 
" style="stroke: #000000; stroke-width: 0.8"/>
      </defs>
      <g>
       <use xlink:href="#mbaacd90a76" x="73.832727" y="307.584" style="stroke: #000000; stroke-width: 0.8"/>
      </g>
     </g>
     <g id="text_1">
      <!-- −10.0 -->
      <g transform="translate(61.342884 322.543375)scale(0.1 -0.1)">
       <defs>
        <path id="SourceHanSans-Regular-2212" d="M 243 2144 
L 3315 2144 
L 3315 2579 
L 243 2579 
L 243 2144 
z
" transform="scale(0.015625)"/>
        <path id="SourceHanSans-Regular-31" d="M 563 0 
L 3136 0 
L 3136 486 
L 2195 486 
L 2195 4691 
L 1747 4691 
C 1491 4544 1190 4435 774 4358 
L 774 3987 
L 1613 3987 
L 1613 486 
L 563 486 
L 563 0 
z
" transform="scale(0.015625)"/>
        <path id="SourceHanSans-Regular-30" d="M 1779 -83 
C 2669 -83 3238 723 3238 2362 
C 3238 3987 2669 4774 1779 4774 
C 883 4774 320 3987 320 2362 
C 320 723 883 -83 1779 -83 
z
M 1779 390 
C 1248 390 883 986 883 2362 
C 883 3731 1248 4314 1779 4314 
C 2310 4314 2675 3731 2675 2362 
C 2675 986 2310 390 1779 390 
z
" transform="scale(0.015625)"/>
        <path id="SourceHanSans-Regular-2e" d="M 890 -83 
C 1120 -83 1312 96 1312 358 
C 1312 627 1120 806 890 806 
C 653 806 467 627 467 358 
C 467 96 653 -83 890 -83 
z
" transform="scale(0.015625)"/>
       </defs>
       <use xlink:href="#SourceHanSans-Regular-2212"/>
       <use xlink:href="#SourceHanSans-Regular-31" x="55.499985"/>
       <use xlink:href="#SourceHanSans-Regular-30" x="110.999969"/>
       <use xlink:href="#SourceHanSans-Regular-2e" x="166.499954"/>
       <use xlink:href="#SourceHanSans-Regular-30" x="194.299942"/>
      </g>
     </g>
    </g>
    <g id="xtick_2">
     <g id="line2d_2">
      <g>
       <use xlink:href="#mbaacd90a76" x="114.516254" y="307.584" style="stroke: #000000; stroke-width: 0.8"/>
      </g>
     </g>
     <g id="text_2">
      <!-- −7.5 -->
      <g transform="translate(104.801411 322.543375)scale(0.1 -0.1)">
       <defs>
        <path id="SourceHanSans-Regular-37" d="M 1267 0 
L 1875 0 
C 1952 1837 2150 2931 3251 4339 
L 3251 4691 
L 314 4691 
L 314 4192 
L 2592 4192 
C 1670 2912 1350 1779 1267 0 
z
" transform="scale(0.015625)"/>
        <path id="SourceHanSans-Regular-35" d="M 1677 -83 
C 2464 -83 3213 499 3213 1523 
C 3213 2560 2573 3021 1798 3021 
C 1517 3021 1306 2950 1094 2835 
L 1216 4192 
L 2982 4192 
L 2982 4691 
L 704 4691 
L 550 2502 
L 864 2304 
C 1133 2483 1331 2579 1645 2579 
C 2234 2579 2618 2182 2618 1510 
C 2618 826 2176 403 1619 403 
C 1075 403 730 653 467 922 
L 173 538 
C 493 224 941 -83 1677 -83 
z
" transform="scale(0.015625)"/>
       </defs>
       <use xlink:href="#SourceHanSans-Regular-2212"/>
       <use xlink:href="#SourceHanSans-Regular-37" x="55.499985"/>
       <use xlink:href="#SourceHanSans-Regular-2e" x="110.999969"/>
       <use xlink:href="#SourceHanSans-Regular-35" x="138.799957"/>
      </g>
     </g>
    </g>
    <g id="xtick_3">
     <g id="line2d_3">
      <g>
       <use xlink:href="#mbaacd90a76" x="155.199781" y="307.584" style="stroke: #000000; stroke-width: 0.8"/>
      </g>
     </g>
     <g id="text_3">
      <!-- −5.0 -->
      <g transform="translate(145.484938 322.543375)scale(0.1 -0.1)">
       <use xlink:href="#SourceHanSans-Regular-2212"/>
       <use xlink:href="#SourceHanSans-Regular-35" x="55.499985"/>
       <use xlink:href="#SourceHanSans-Regular-2e" x="110.999969"/>
       <use xlink:href="#SourceHanSans-Regular-30" x="138.799957"/>
      </g>
     </g>
    </g>
    <g id="xtick_4">
     <g id="line2d_4">
      <g>
       <use xlink:href="#mbaacd90a76" x="195.883308" y="307.584" style="stroke: #000000; stroke-width: 0.8"/>
      </g>
     </g>
     <g id="text_4">
      <!-- −2.5 -->
      <g transform="translate(186.168465 322.543375)scale(0.1 -0.1)">
       <defs>
        <path id="SourceHanSans-Regular-32" d="M 282 0 
L 3232 0 
L 3232 506 
L 1933 506 
C 1696 506 1408 480 1165 461 
C 2266 1504 3008 2458 3008 3398 
C 3008 4230 2477 4774 1638 4774 
C 1043 4774 634 4506 256 4090 
L 595 3757 
C 858 4070 1184 4301 1568 4301 
C 2150 4301 2432 3910 2432 3373 
C 2432 2566 1754 1632 282 346 
L 282 0 
z
" transform="scale(0.015625)"/>
       </defs>
       <use xlink:href="#SourceHanSans-Regular-2212"/>
       <use xlink:href="#SourceHanSans-Regular-32" x="55.499985"/>
       <use xlink:href="#SourceHanSans-Regular-2e" x="110.999969"/>
       <use xlink:href="#SourceHanSans-Regular-35" x="138.799957"/>
      </g>
     </g>
    </g>
    <g id="xtick_5">
     <g id="line2d_5">
      <g>
       <use xlink:href="#mbaacd90a76" x="236.566835" y="307.584" style="stroke: #000000; stroke-width: 0.8"/>
      </g>
     </g>
     <g id="text_5">
      <!-- 0.0 -->
      <g transform="translate(229.626992 322.543375)scale(0.1 -0.1)">
       <use xlink:href="#SourceHanSans-Regular-30"/>
       <use xlink:href="#SourceHanSans-Regular-2e" x="55.499985"/>
       <use xlink:href="#SourceHanSans-Regular-30" x="83.299973"/>
      </g>
     </g>
    </g>
    <g id="xtick_6">
     <g id="line2d_6">
      <g>
       <use xlink:href="#mbaacd90a76" x="277.250362" y="307.584" style="stroke: #000000; stroke-width: 0.8"/>
      </g>
     </g>
     <g id="text_6">
      <!-- 2.5 -->
      <g transform="translate(270.310519 322.543375)scale(0.1 -0.1)">
       <use xlink:href="#SourceHanSans-Regular-32"/>
       <use xlink:href="#SourceHanSans-Regular-2e" x="55.499985"/>
       <use xlink:href="#SourceHanSans-Regular-35" x="83.299973"/>
      </g>
     </g>
    </g>
    <g id="xtick_7">
     <g id="line2d_7">
      <g>
       <use xlink:href="#mbaacd90a76" x="317.933889" y="307.584" style="stroke: #000000; stroke-width: 0.8"/>
      </g>
     </g>
     <g id="text_7">
      <!-- 5.0 -->
      <g transform="translate(310.994046 322.543375)scale(0.1 -0.1)">
       <use xlink:href="#SourceHanSans-Regular-35"/>
       <use xlink:href="#SourceHanSans-Regular-2e" x="55.499985"/>
       <use xlink:href="#SourceHanSans-Regular-30" x="83.299973"/>
      </g>
     </g>
    </g>
    <g id="xtick_8">
     <g id="line2d_8">
      <g>
       <use xlink:href="#mbaacd90a76" x="358.617416" y="307.584" style="stroke: #000000; stroke-width: 0.8"/>
      </g>
     </g>
     <g id="text_8">
      <!-- 7.5 -->
      <g transform="translate(351.677573 322.543375)scale(0.1 -0.1)">
       <use xlink:href="#SourceHanSans-Regular-37"/>
       <use xlink:href="#SourceHanSans-Regular-2e" x="55.499985"/>
       <use xlink:href="#SourceHanSans-Regular-35" x="83.299973"/>
      </g>
     </g>
    </g>
    <g id="xtick_9">
     <g id="line2d_9">
      <g>
       <use xlink:href="#mbaacd90a76" x="399.300943" y="307.584" style="stroke: #000000; stroke-width: 0.8"/>
      </g>
     </g>
     <g id="text_9">
      <!-- 10.0 -->
      <g transform="translate(389.5861 322.543375)scale(0.1 -0.1)">
       <use xlink:href="#SourceHanSans-Regular-31"/>
       <use xlink:href="#SourceHanSans-Regular-30" x="55.499985"/>
       <use xlink:href="#SourceHanSans-Regular-2e" x="110.999969"/>
       <use xlink:href="#SourceHanSans-Regular-30" x="138.799957"/>
      </g>
     </g>
    </g>
   </g>
   <g id="matplotlib.axis_2">
    <g id="ytick_1">
     <g id="line2d_10">
      <defs>
       <path id="m8f728b8df4" d="M 0 0 
L -3.5 0 
" style="stroke: #000000; stroke-width: 0.8"/>
      </defs>
      <g>
       <use xlink:href="#m8f728b8df4" x="57.6" y="302.366118" style="stroke: #000000; stroke-width: 0.8"/>
      </g>
     </g>
     <g id="text_10">
      <!-- 0 -->
      <g transform="translate(45.05 306.345805)scale(0.1 -0.1)">
       <use xlink:href="#SourceHanSans-Regular-30"/>
      </g>
     </g>
    </g>
    <g id="ytick_2">
     <g id="line2d_11">
      <g>
       <use xlink:href="#m8f728b8df4" x="57.6" y="250.187294" style="stroke: #000000; stroke-width: 0.8"/>
      </g>
     </g>
     <g id="text_11">
      <!-- 1 -->
      <g transform="translate(45.05 254.166982)scale(0.1 -0.1)">
       <use xlink:href="#SourceHanSans-Regular-31"/>
      </g>
     </g>
    </g>
    <g id="ytick_3">
     <g id="line2d_12">
      <g>
       <use xlink:href="#m8f728b8df4" x="57.6" y="198.008471" style="stroke: #000000; stroke-width: 0.8"/>
      </g>
     </g>
     <g id="text_12">
      <!-- 2 -->
      <g transform="translate(45.05 201.988158)scale(0.1 -0.1)">
       <use xlink:href="#SourceHanSans-Regular-32"/>
      </g>
     </g>
    </g>
    <g id="ytick_4">
     <g id="line2d_13">
      <g>
       <use xlink:href="#m8f728b8df4" x="57.6" y="145.829647" style="stroke: #000000; stroke-width: 0.8"/>
      </g>
     </g>
     <g id="text_13">
      <!-- 3 -->
      <g transform="translate(45.05 149.809335)scale(0.1 -0.1)">
       <defs>
        <path id="SourceHanSans-Regular-33" d="M 1683 -83 
C 2522 -83 3194 416 3194 1254 
C 3194 1901 2752 2310 2202 2445 
L 2202 2477 
C 2701 2650 3034 3034 3034 3603 
C 3034 4346 2458 4774 1664 4774 
C 1126 4774 710 4538 358 4218 
L 672 3846 
C 941 4115 1267 4301 1645 4301 
C 2138 4301 2438 4006 2438 3558 
C 2438 3053 2112 2662 1139 2662 
L 1139 2214 
C 2227 2214 2598 1843 2598 1274 
C 2598 736 2208 403 1645 403 
C 1114 403 762 659 486 941 
L 186 563 
C 493 224 954 -83 1683 -83 
z
" transform="scale(0.015625)"/>
       </defs>
       <use xlink:href="#SourceHanSans-Regular-33"/>
      </g>
     </g>
    </g>
    <g id="ytick_5">
     <g id="line2d_14">
      <g>
       <use xlink:href="#m8f728b8df4" x="57.6" y="93.650824" style="stroke: #000000; stroke-width: 0.8"/>
      </g>
     </g>
     <g id="text_14">
      <!-- 4 -->
      <g transform="translate(45.05 97.630511)scale(0.1 -0.1)">
       <defs>
        <path id="SourceHanSans-Regular-34" d="M 2176 0 
L 2726 0 
L 2726 1293 
L 3354 1293 
L 3354 1760 
L 2726 1760 
L 2726 4691 
L 2080 4691 
L 128 1677 
L 128 1293 
L 2176 1293 
L 2176 0 
z
M 2176 1760 
L 736 1760 
L 1805 3360 
C 1939 3590 2067 3827 2182 4051 
L 2208 4051 
C 2195 3814 2176 3430 2176 3200 
L 2176 1760 
z
" transform="scale(0.015625)"/>
       </defs>
       <use xlink:href="#SourceHanSans-Regular-34"/>
      </g>
     </g>
    </g>
    <g id="ytick_6">
     <g id="line2d_15">
      <g>
       <use xlink:href="#m8f728b8df4" x="57.6" y="41.472" style="stroke: #000000; stroke-width: 0.8"/>
      </g>
     </g>
     <g id="text_15">
      <!-- 5 -->
      <g transform="translate(45.05 45.451687)scale(0.1 -0.1)">
       <use xlink:href="#SourceHanSans-Regular-35"/>
      </g>
     </g>
    </g>
   </g>
   <g id="line2d_16">
    <path d="M 73.832727 302.366118 
L 171.473192 302.366118 
L 236.566835 93.650824 
L 301.660478 302.366118 
L 398.487273 302.366118 
L 398.487273 302.366118 
" clip-path="url(#p140fc78aa6)" style="fill: none; stroke: #ff0000; stroke-width: 1.5; stroke-linecap: square"/>
   </g>
   <g id="patch_3">
    <path d="M 57.6 307.584 
L 57.6 41.472 
" style="fill: none; stroke: #000000; stroke-width: 0.8; stroke-linejoin: miter; stroke-linecap: square"/>
   </g>
   <g id="patch_4">
    <path d="M 414.72 307.584 
L 414.72 41.472 
" style="fill: none; stroke: #000000; stroke-width: 0.8; stroke-linejoin: miter; stroke-linecap: square"/>
   </g>
   <g id="patch_5">
    <path d="M 57.6 307.584 
L 414.72 307.584 
" style="fill: none; stroke: #000000; stroke-width: 0.8; stroke-linejoin: miter; stroke-linecap: square"/>
   </g>
   <g id="patch_6">
    <path d="M 57.6 41.472 
L 414.72 41.472 
" style="fill: none; stroke: #000000; stroke-width: 0.8; stroke-linejoin: miter; stroke-linecap: square"/>
   </g>
   <g id="text_16">
    <!-- 湧き出しなし 初期条件2 -->
    <g transform="translate(171.485625 35.472)scale(0.12 -0.12)">
     <defs>
      <path id="SourceHanSans-Regular-6e67" d="M 582 4973 
C 992 4787 1485 4480 1728 4243 
L 2003 4640 
C 1754 4864 1254 5146 845 5318 
L 582 4973 
z
M 243 3238 
C 659 3059 1158 2771 1408 2554 
L 1683 2957 
C 1427 3168 915 3443 506 3597 
L 243 3238 
z
M 429 -115 
L 845 -422 
C 1197 179 1619 986 1939 1664 
L 1574 1965 
C 1222 1229 755 384 429 -115 
z
M 2771 2630 
L 3814 2630 
L 3814 2131 
L 2771 2131 
L 2771 2630 
z
M 4262 2630 
L 5344 2630 
L 5344 2131 
L 4262 2131 
L 4262 2630 
z
M 2771 3469 
L 3814 3469 
L 3814 2970 
L 2771 2970 
L 2771 3469 
z
M 4262 3469 
L 5344 3469 
L 5344 2970 
L 4262 2970 
L 4262 3469 
z
M 3008 4224 
C 3386 4122 3821 3974 4186 3821 
L 2336 3821 
L 2336 1779 
L 3731 1779 
C 3712 1619 3686 1472 3654 1331 
L 2022 1331 
L 2022 934 
L 3520 934 
C 3283 416 2810 64 1818 -141 
C 1907 -230 2022 -410 2067 -525 
C 3245 -256 3770 224 4026 934 
L 5421 934 
C 5350 294 5267 19 5165 -77 
C 5107 -128 5050 -134 4928 -134 
C 4813 -134 4486 -128 4147 -96 
C 4218 -211 4262 -378 4269 -493 
C 4621 -512 4947 -518 5120 -506 
C 5306 -493 5434 -461 5549 -352 
C 5715 -192 5811 198 5907 1139 
C 5914 1197 5926 1331 5926 1331 
L 4141 1331 
C 4166 1472 4192 1619 4211 1779 
L 5798 1779 
L 5798 3821 
L 4851 3821 
L 4922 3930 
C 4813 3987 4678 4051 4525 4115 
C 4960 4339 5389 4634 5702 4934 
L 5408 5165 
L 5306 5139 
L 2310 5139 
L 2310 4749 
L 4851 4749 
C 4627 4576 4352 4410 4090 4282 
C 3802 4378 3501 4467 3238 4531 
L 3008 4224 
z
" transform="scale(0.015625)"/>
      <path id="SourceHanSans-Regular-304d" d="M 1952 1696 
L 1453 1798 
C 1312 1517 1197 1248 1203 883 
C 1210 64 1914 -307 3168 -307 
C 3712 -307 4218 -269 4666 -198 
L 4685 314 
C 4224 218 3757 179 3162 179 
C 2157 179 1683 442 1683 973 
C 1683 1254 1798 1472 1952 1696 
z
M 3213 4467 
L 3258 4307 
C 2643 4275 1914 4294 1146 4384 
L 1178 3917 
C 1978 3846 2765 3834 3379 3872 
L 3552 3373 
L 3680 3040 
C 2957 2976 1984 2970 1024 3072 
L 1050 2592 
C 2035 2522 3085 2534 3866 2605 
C 4006 2291 4173 1978 4365 1683 
C 4160 1709 3744 1754 3405 1792 
L 3360 1402 
C 3802 1350 4403 1293 4762 1197 
L 5024 1587 
C 4934 1677 4858 1760 4787 1862 
C 4621 2106 4474 2381 4339 2656 
C 4787 2720 5190 2803 5498 2886 
L 5421 3366 
C 5120 3270 4672 3155 4141 3091 
L 3994 3475 
L 3853 3917 
C 4294 3974 4749 4070 5114 4173 
L 5043 4634 
C 4634 4499 4186 4403 3731 4346 
C 3661 4602 3603 4864 3578 5107 
L 3034 5037 
C 3098 4858 3162 4659 3213 4467 
z
" transform="scale(0.015625)"/>
      <path id="SourceHanSans-Regular-51fa" d="M 966 4768 
L 966 2560 
L 2918 2560 
L 2918 365 
L 1203 365 
L 1203 2144 
L 723 2144 
L 723 -512 
L 1203 -512 
L 1203 -109 
L 5222 -109 
L 5222 -499 
L 5715 -499 
L 5715 2144 
L 5222 2144 
L 5222 365 
L 3418 365 
L 3418 2560 
L 5459 2560 
L 5459 4768 
L 4960 4768 
L 4960 3021 
L 3418 3021 
L 3418 5344 
L 2918 5344 
L 2918 3021 
L 1446 3021 
L 1446 4768 
L 966 4768 
z
" transform="scale(0.015625)"/>
      <path id="SourceHanSans-Regular-3057" d="M 2176 4986 
L 1530 4992 
C 1568 4806 1581 4576 1581 4339 
C 1581 3667 1517 2048 1517 1101 
C 1517 58 2150 -326 3072 -326 
C 4480 -326 5306 480 5747 1088 
L 5382 1523 
C 4922 858 4262 198 3091 198 
C 2483 198 2042 448 2042 1152 
C 2042 2106 2086 3616 2118 4339 
C 2125 4550 2144 4774 2176 4986 
z
" transform="scale(0.015625)"/>
      <path id="SourceHanSans-Regular-306a" d="M 5677 2931 
L 5965 3354 
C 5664 3584 4934 4000 4474 4205 
L 4211 3814 
C 4640 3622 5331 3226 5677 2931 
z
M 3981 1056 
L 3987 768 
C 3987 416 3808 134 3277 134 
C 2778 134 2534 339 2534 640 
C 2534 934 2854 1152 3322 1152 
C 3552 1152 3776 1120 3981 1056 
z
M 4397 3104 
L 3898 3104 
C 3910 2650 3942 2016 3968 1491 
C 3770 1536 3558 1555 3341 1555 
C 2618 1555 2061 1184 2061 595 
C 2061 -38 2637 -326 3341 -326 
C 4134 -326 4461 90 4461 602 
L 4454 870 
C 4870 666 5216 378 5491 134 
L 5766 570 
C 5434 851 4986 1165 4435 1363 
L 4390 2413 
C 4384 2643 4384 2842 4397 3104 
z
M 2886 5082 
L 2323 5133 
C 2310 4787 2221 4384 2125 4026 
C 1875 4006 1632 3994 1402 3994 
C 1133 3994 858 4006 621 4038 
L 653 3558 
C 896 3546 1165 3539 1402 3539 
C 1587 3539 1779 3546 1971 3558 
C 1677 2810 1133 1786 602 1165 
L 1094 909 
C 1606 1600 2176 2707 2490 3610 
C 2912 3667 3315 3750 3654 3846 
L 3642 4326 
C 3315 4218 2970 4141 2637 4090 
C 2739 4461 2829 4851 2886 5082 
z
" transform="scale(0.015625)"/>
      <path id="SourceHanSans-Regular-20" transform="scale(0.015625)"/>
      <path id="SourceHanSans-Regular-521d" d="M 2650 4787 
L 2650 4333 
L 3738 4333 
C 3706 2656 3590 781 2176 -160 
C 2304 -243 2464 -397 2547 -518 
C 4026 531 4173 2509 4224 4333 
L 5523 4333 
C 5459 1421 5376 358 5178 128 
C 5114 45 5050 19 4928 19 
C 4787 19 4448 19 4064 58 
C 4154 -90 4211 -301 4218 -442 
C 4563 -461 4915 -467 5133 -442 
C 5350 -416 5491 -352 5626 -154 
C 5869 166 5939 1248 6010 4518 
C 6016 4589 6016 4787 6016 4787 
L 2650 4787 
z
M 2541 2995 
C 2432 2803 2221 2515 2054 2310 
L 1818 2541 
C 2157 3008 2445 3520 2650 4038 
L 2381 4224 
L 2291 4198 
L 1754 4198 
L 1754 5376 
L 1280 5376 
L 1280 4198 
L 346 4198 
L 346 3763 
L 2054 3763 
C 1632 2880 877 1997 166 1504 
C 250 1421 384 1197 435 1082 
C 717 1293 1005 1568 1280 1875 
L 1280 -512 
L 1754 -512 
L 1754 2099 
C 2016 1798 2336 1408 2477 1203 
L 2771 1568 
L 2278 2080 
C 2451 2266 2656 2509 2861 2739 
L 2541 2995 
z
" transform="scale(0.015625)"/>
      <path id="SourceHanSans-Regular-671f" d="M 1139 915 
C 947 486 608 58 250 -230 
C 365 -301 557 -435 646 -512 
C 992 -192 1363 301 1594 787 
L 1139 915 
z
M 2054 717 
C 2304 416 2598 -6 2714 -269 
L 3110 -38 
C 2976 224 2682 621 2426 915 
L 2054 717 
z
M 5472 4621 
L 5472 3590 
L 4160 3590 
L 4160 4621 
L 5472 4621 
z
M 3712 5056 
L 3712 2733 
C 3712 1811 3661 589 3123 -262 
C 3232 -314 3430 -454 3507 -538 
C 3891 70 4058 890 4122 1664 
L 5472 1664 
L 5472 109 
C 5472 6 5434 -19 5344 -26 
C 5248 -32 4922 -32 4582 -19 
C 4646 -147 4717 -358 4736 -486 
C 5203 -486 5510 -480 5690 -397 
C 5875 -320 5933 -173 5933 102 
L 5933 5056 
L 3712 5056 
z
M 5472 3162 
L 5472 2099 
L 4147 2099 
C 4160 2323 4160 2534 4160 2733 
L 4160 3162 
L 5472 3162 
z
M 2477 5299 
L 2477 4525 
L 1312 4525 
L 1312 5299 
L 877 5299 
L 877 4525 
L 333 4525 
L 333 4096 
L 877 4096 
L 877 1478 
L 243 1478 
L 243 1050 
L 3398 1050 
L 3398 1478 
L 2925 1478 
L 2925 4096 
L 3398 4096 
L 3398 4525 
L 2925 4525 
L 2925 5299 
L 2477 5299 
z
M 1312 4096 
L 2477 4096 
L 2477 3526 
L 1312 3526 
L 1312 4096 
z
M 1312 3142 
L 2477 3142 
L 2477 2515 
L 1312 2515 
L 1312 3142 
z
M 1312 2125 
L 2477 2125 
L 2477 1478 
L 1312 1478 
L 1312 2125 
z
" transform="scale(0.015625)"/>
      <path id="SourceHanSans-Regular-6761" d="M 4243 4371 
C 3981 4026 3635 3718 3226 3462 
C 2810 3712 2464 4006 2195 4346 
L 2227 4371 
L 4243 4371 
z
M 2419 5389 
C 2086 4806 1427 4141 474 3680 
C 582 3610 736 3443 819 3328 
C 1222 3546 1574 3782 1875 4045 
C 2131 3731 2438 3456 2790 3213 
C 2054 2835 1197 2586 371 2451 
C 454 2342 563 2144 595 2016 
C 1504 2195 2438 2490 3232 2944 
C 3974 2534 4858 2266 5830 2125 
C 5894 2253 6022 2451 6118 2554 
C 5210 2669 4378 2893 3674 3219 
C 4211 3597 4666 4058 4966 4621 
L 4646 4813 
L 4557 4787 
L 2592 4787 
C 2726 4954 2842 5120 2944 5286 
L 2419 5389 
z
M 2944 2509 
L 2944 1818 
L 365 1818 
L 365 1389 
L 2522 1389 
C 1958 787 1056 256 237 0 
C 346 -102 486 -282 557 -397 
C 1408 -77 2349 538 2944 1248 
L 2944 -512 
L 3430 -512 
L 3430 1242 
C 4032 544 4966 -64 5837 -371 
C 5914 -250 6054 -64 6163 32 
C 5318 288 4422 794 3859 1389 
L 6048 1389 
L 6048 1818 
L 3430 1818 
L 3430 2509 
L 2944 2509 
z
" transform="scale(0.015625)"/>
      <path id="SourceHanSans-Regular-4ef6" d="M 2029 2182 
L 2029 1715 
L 3866 1715 
L 3866 -512 
L 4346 -512 
L 4346 1715 
L 6099 1715 
L 6099 2182 
L 4346 2182 
L 4346 3597 
L 5818 3597 
L 5818 4064 
L 4346 4064 
L 4346 5299 
L 3866 5299 
L 3866 4064 
L 3008 4064 
C 3091 4352 3162 4659 3226 4960 
L 2765 5056 
C 2618 4218 2349 3392 1978 2861 
C 2093 2803 2298 2688 2387 2618 
C 2560 2886 2720 3226 2854 3597 
L 3866 3597 
L 3866 2182 
L 2029 2182 
z
M 1715 5350 
C 1370 4384 806 3424 205 2797 
C 288 2688 429 2438 480 2323 
C 685 2541 877 2797 1069 3072 
L 1069 -499 
L 1530 -499 
L 1530 3821 
C 1773 4269 1990 4742 2170 5216 
L 1715 5350 
z
" transform="scale(0.015625)"/>
     </defs>
     <use xlink:href="#SourceHanSans-Regular-6e67"/>
     <use xlink:href="#SourceHanSans-Regular-304d" x="99.999985"/>
     <use xlink:href="#SourceHanSans-Regular-51fa" x="199.999969"/>
     <use xlink:href="#SourceHanSans-Regular-3057" x="299.999954"/>
     <use xlink:href="#SourceHanSans-Regular-306a" x="399.999939"/>
     <use xlink:href="#SourceHanSans-Regular-3057" x="499.999924"/>
     <use xlink:href="#SourceHanSans-Regular-20" x="599.999908"/>
     <use xlink:href="#SourceHanSans-Regular-521d" x="622.399902"/>
     <use xlink:href="#SourceHanSans-Regular-671f" x="722.399887"/>
     <use xlink:href="#SourceHanSans-Regular-6761" x="822.399872"/>
     <use xlink:href="#SourceHanSans-Regular-4ef6" x="922.399857"/>
     <use xlink:href="#SourceHanSans-Regular-32" x="1022.399841"/>
    </g>
   </g>
   <g id="legend_1">
    <g id="patch_7">
     <path d="M 356.368438 64.722 
L 407.72 64.722 
Q 409.72 64.722 409.72 62.722 
L 409.72 48.472 
Q 409.72 46.472 407.72 46.472 
L 356.368438 46.472 
Q 354.368438 46.472 354.368438 48.472 
L 354.368438 62.722 
Q 354.368438 64.722 356.368438 64.722 
z
" style="fill: #ffffff; opacity: 0.8; stroke: #cccccc; stroke-linejoin: miter"/>
    </g>
    <g id="line2d_17">
     <path d="M 358.368438 54.931375 
L 368.368438 54.931375 
L 378.368438 54.931375 
" style="fill: none; stroke: #ff0000; stroke-width: 1.5; stroke-linecap: square"/>
    </g>
    <g id="text_17">
     <!-- t = 0 -->
     <g transform="translate(386.368438 58.431375)scale(0.1 -0.1)">
      <defs>
       <path id="SourceHanSans-Regular-74" d="M 1677 -83 
C 1894 -83 2125 -19 2323 45 
L 2208 486 
C 2093 435 1939 390 1811 390 
C 1408 390 1274 634 1274 1056 
L 1274 3002 
L 2221 3002 
L 2221 3475 
L 1274 3475 
L 1274 4454 
L 787 4454 
L 723 3475 
L 173 3443 
L 173 3002 
L 691 3002 
L 691 1075 
C 691 378 941 -83 1677 -83 
z
" transform="scale(0.015625)"/>
       <path id="SourceHanSans-Regular-3d" d="M 243 2912 
L 3315 2912 
L 3315 3347 
L 243 3347 
L 243 2912 
z
M 243 1376 
L 3315 1376 
L 3315 1811 
L 243 1811 
L 243 1376 
z
" transform="scale(0.015625)"/>
      </defs>
      <use xlink:href="#SourceHanSans-Regular-74"/>
      <use xlink:href="#SourceHanSans-Regular-20" x="37.699997"/>
      <use xlink:href="#SourceHanSans-Regular-3d" x="60.099991"/>
      <use xlink:href="#SourceHanSans-Regular-20" x="115.599976"/>
      <use xlink:href="#SourceHanSans-Regular-30" x="137.999969"/>
     </g>
    </g>
   </g>
  </g>
 </g>
 <defs>
  <clipPath id="p140fc78aa6">
   <rect x="57.6" y="41.472" width="357.12" height="266.112"/>
  </clipPath>
 </defs>
</svg>
